HIERARCHY
ROOT pelvis
{
  OFFSET 0 100 0
  CHANNELS 6 Xposition Yposition Zposition Zrotation Xrotation Yrotation
  JOINT pelvis_right_femur
  {
    OFFSET -10.78128 -3.44521 -0.5502486
    CHANNELS 3 Zrotation Xrotation Yrotation
    JOINT right_femur_tibia
    {
      OFFSET -0.8047443 -44.0398 -0.1307829
      CHANNELS 3 Zrotation Xrotation Yrotation
      JOINT right_tibia_foot
      {
        OFFSET 3.006224 -47.83518 -5
        CHANNELS 3 Zrotation Xrotation Yrotation
        End Site
        {
          OFFSET 0 -5 15
        }
      }
    }
  }
  JOINT pelvis_left_femur
  {
    OFFSET 10.78128 -3.44521 -0.5502486
    CHANNELS 3 Zrotation Xrotation Yrotation
    JOINT left_femur_tibia
    {
      OFFSET 0.8047443 -44.0398 -0.1307829
      CHANNELS 3 Zrotation Xrotation Yrotation
      JOINT left_tibia_foot
      {
        OFFSET -4.370144 -48.10324 -4.275266
        CHANNELS 3 Zrotation Xrotation Yrotation
        End Site
        {
          OFFSET 0 -5 15
        }
      }
    }
  }
  JOINT pelvis_spine1
  {
    OFFSET 0 6.468898 -3.129235
    CHANNELS 3 Zrotation Xrotation Yrotation
    JOINT spine1
    {
      OFFSET 0 23.15396 4.99043
      CHANNELS 3 Zrotation Xrotation Yrotation
      JOINT spine2
      {
        OFFSET 0 20.79997 -5.064912
        CHANNELS 3 Zrotation Xrotation Yrotation
        JOINT neck
        {
          OFFSET 0 14.38658 9.616178
          CHANNELS 3 Zrotation Xrotation Yrotation
          End Site
          {
            OFFSET 0 20 0
          }
        }
      }
      JOINT right_manubrium
      {
        OFFSET -5.722621 16.35077 3.967754
        CHANNELS 3 Zrotation Xrotation Yrotation
        JOINT right_clavicle
        {
          OFFSET -13.16364 1.694482 -4.693211
          CHANNELS 3 Zrotation Xrotation Yrotation
          JOINT right_humerus
          {
            OFFSET -28.5034 -0.3100689 -2.792744
            CHANNELS 3 Zrotation Xrotation Yrotation
            JOINT right_radius
            {
              OFFSET -25.15693 0.02248979 -1.271978
              CHANNELS 3 Zrotation Xrotation Yrotation
              End Site
              {
                OFFSET -15 0 0
              }
            }
          }
        }
      }
      JOINT left_manubrium
      {
        OFFSET 5.722621 16.35077 3.967754
        CHANNELS 3 Zrotation Xrotation Yrotation
        JOINT left_clavicle
        {
          OFFSET 13.16364 1.694482 -4.693211
          CHANNELS 3 Zrotation Xrotation Yrotation
          JOINT left_humerus
          {
            OFFSET 29.39168 -1.063119 -2.237045
            CHANNELS 3 Zrotation Xrotation Yrotation
            JOINT left_radius
            {
              OFFSET 24.59957 -0.9528479 0.9047498
              CHANNELS 3 Zrotation Xrotation Yrotation
              End Site
              {
                OFFSET 15 -0 -0
              }
            }
          }
        }
      }
    }
  }
}
MOTION
Frames: 13
Frame Time: 0.0416666666667
-1172.214 105.3838 2408.397 -7.099201 -3.978795 -57.99518 6.455041 -8.593905 2.258348 -0 15.81216 -0 -7.550929 -2.925351 -5.409581 -2.783703 4.700504 -6.487322 -0 56.48187 -0 -4.334225 -6.565077 14.954 0.9546082 -1.824369 7.215551 -0.2687847 15.13523 -5.993491 1.918539 20.21322 2.287721 -1.245146 -22.8442 6.323045 -6.958661 -29.6257 10.30774 96.85544 19.86793 -13.52221 -0 0 20.52424 -20.02512 11.05674 13.51008 0.3845116 -22.09137 -6.83574 -89.4848 14.96232 30.64615 0 0 -21.45829 2.8097 8.792563 13.11712
-1177.412 106.4736 2411.351 -7.640944 -4.594285 -59.01544 6.160128 -3.217857 2.565751 -0 14.77381 -0 -7.489855 -4.680255 -4.775095 -2.201475 -2.183824 -6.209062 -0 58.54026 -0 -4.32659 -5.729312 16.00988 0.9551422 -1.824061 7.217179 -0.2696107 15.13582 -5.991939 1.918752 20.21212 2.286692 -1.246012 -22.84396 6.322824 -6.958768 -29.62976 10.30758 96.85203 19.8692 -13.5153 -0 0 20.53295 -20.02628 11.05957 13.51301 0.3832939 -22.08778 -6.834755 -89.48933 14.96157 30.65564 0 0 -21.45037 2.807007 8.79094 13.12044
-1182.253 107.1506 2414.158 -7.882543 -4.991022 -60.00493 5.810282 1.753391 2.757811 -0 12.98033 -0 -7.149178 -6.704551 -4.101846 -1.327219 -8.920328 -5.657508 -0 55.55465 -0 -4.120576 -5.67906 17.1561 0.9556484 -1.823567 7.218768 -0.2704955 15.13611 -5.990146 1.919009 20.21121 2.285724 -1.246834 -22.84379 6.32271 -6.958843 -29.63366 10.3073 96.8483 19.87053 -13.50794 -0 0 20.54162 -20.02744 11.06214 13.51603 0.382174 -22.08378 -6.833568 -89.49433 14.96131 30.66532 0 0 -21.44144 2.804155 8.789239 13.12397
-1186.878 107.2889 2416.918 -7.692952 -4.900691 -60.87783 5.567711 6.100885 2.873532 -0 11.22602 -0 -6.651229 -9.093343 -3.43799 -0.1138038 -14.84368 -4.771372 -0 48.23302 -0 -3.793707 -5.919686 18.14697 0.9560935 -1.822916 7.220213 -0.2713831 15.13607 -5.988223 1.919292 20.21055 2.28488 -1.24756 -22.84371 6.32271 -6.958881 -29.63714 10.30693 96.8445 19.87185 -13.50059 -0 0 20.54969 -20.02853 11.06427 13.51894 0.3812253 -22.07964 -6.832251 -89.49949 14.96156 30.67456 0 0 -21.43207 2.801325 8.787566 13.1275
-1191.458 106.9155 2419.749 -7.019938 -4.243876 -61.61585 5.436172 9.683983 2.829801 -0 10.07803 -0 -6.140292 -11.66815 -2.710839 1.276924 -19.57931 -3.669617 -0 38.37639 -0 -3.389402 -6.038638 18.75966 0.9564489 -1.822148 7.221422 -0.2722169 15.13571 -5.986291 1.919584 20.21019 2.284214 -1.248143 -22.84371 6.322826 -6.95888 -29.63998 10.30648 96.84085 19.87306 -13.49373 -0 0 20.55664 -20.02949 11.06582 13.52157 0.3805088 -22.07561 -6.830887 -89.50449 14.96231 30.68277 0 0 -21.42284 2.798696 8.786027 13.13078
-1196.145 106.1528 2422.757 -6.028222 -3.231422 -62.26319 5.278131 12.51972 2.578463 -0 9.88207 -0 -5.7131 -13.97068 -1.890848 2.46973 -22.91985 -2.722465 -0 28.29566 -0 -2.996116 -5.896556 18.98411 0.9566925 -1.821312 7.222321 -0.2729449 15.13505 -5.984472 1.919867 20.21014 2.283767 -1.248547 -22.8438 6.323049 -6.958841 -29.642 10.30598 96.83759 19.8741 -13.48777 -0 0 20.56205 -20.03025 11.0667 13.52373 0.3800679 -22.07194 -6.829563 -89.509 14.9635 30.68945 0 0 -21.41435 2.796432 8.784717 13.13363
-1201.042 105.1541 2426.011 -5.084623 -2.304121 -62.88988 4.878756 14.83708 2.222492 -0 10.84434 -0 -5.404726 -15.39888 -1.092586 2.997839 -24.79131 -2.449905 -0 20.11102 -0 -2.770907 -5.650025 19.08594 0.9568112 -1.820461 7.222859 -0.2735238 15.13413 -5.982877 1.920122 20.2104 2.283564 -1.248751 -22.84398 6.323365 -6.958768 -29.6431 10.30547 96.83492 19.8749 -13.48309 -0 0 20.5656 -20.03077 11.06687 13.52532 0.3799244 -22.06886 -6.82836 -89.51276 14.96507 30.6942 0 0 -21.4071 2.794666 8.78371 13.13588
-1206.193 104.0804 2429.527 -4.54252 -1.883813 -63.54061 4.073762 16.9095 1.965834 -0 13.0988 -0 -5.231893 -15.38389 -0.4990928 2.56187 -25.27354 -3.197237 -0 15.07767 -0 -2.823865 -5.58352 19.4114 0.9568012 -1.819646 7.223015 -0.2739221 15.13302 -5.981599 1.920336 20.21095 2.283608 -1.248749 -22.84422 6.32375 -6.958667 -29.64322 10.30498 96.83299 19.87542 -13.47992 -0 0 20.56712 -20.03101 11.06632 13.52624 0.3800777 -22.06654 -6.827348 -89.51556 14.96689 30.69679 0 0 -21.40152 2.793494 8.783059 13.13739
-1211.604 103.119 2433.278 -4.51092 -2.113362 -64.19987 2.872333 18.73354 1.952487 -0 16.7908 -0 -5.234421 -13.52223 -0.1957977 1.233152 -24.55527 -4.84454 -0 13.31268 -0 -3.056326 -5.873021 20.07862 0.9566675 -1.818917 7.222792 -0.2741217 15.13179 -5.980706 1.920496 20.21175 2.283889 -1.248547 -22.84451 6.324178 -6.958546 -29.64241 10.30453 96.83189 19.87565 -13.47841 -0 0 20.56661 -20.03098 11.06513 13.52647 0.380507 -22.06509 -6.826585 -89.51724 14.96885 30.69713 0 0 -21.39788 2.792964 8.782788 13.13812
-1217.243 102.488 2437.205 -4.8283 -2.817207 -64.78299 1.484366 19.88195 2.157449 -0 22.1193 -0 -5.472794 -9.676552 -0.1088676 -0.6001336 -22.8418 -6.857992 -0 14.06497 -0 -3.156102 -6.478175 20.86495 0.9564222 -1.818313 7.222216 -0.2741173 15.13053 -5.98024 1.920593 20.21273 2.284382 -1.248166 -22.84484 6.324622 -6.958417 -29.64073 10.30415 96.83166 19.87558 -13.4786 -0 0 20.56414 -20.03068 11.06338 13.526 0.381176 -22.06458 -6.826105 -89.51775 14.97082 30.69528 0 0 -21.39636 2.793087 8.782896 13.13803
-1223.032 102.3932 2441.215 -5.229526 -3.665039 -65.15227 0.2540934 19.66648 2.401882 -0 29.19754 -0 -5.988168 -4.131116 -0.1008329 -2.457269 -20.28727 -8.606692 -0 16.18763 -0 -2.787909 -7.226576 21.3757 0.9560817 -1.817865 7.221332 -0.2739145 15.1293 -5.980217 1.920625 20.21383 2.285052 -1.247633 -22.84519 6.325056 -6.958289 -29.63832 10.30386 96.8323 19.87523 -13.48044 -0 0 20.55993 -20.03013 11.06117 13.52488 0.3820385 -22.06501 -6.825931 -89.51708 14.97269 30.69139 0 0 -21.39699 2.793838 8.783359 13.13716
-1228.829 102.9488 2445.19 -5.534302 -4.351471 -65.16413 -0.479673 17.46385 2.462272 -0 37.6683 -0 -6.737959 2.196807 -0.1095083 -3.960808 -16.97665 -9.676801 -0 18.4656 -0 -1.830238 -7.993967 21.31839 0.9556654 -1.817592 7.220192 -0.2735276 15.12816 -5.980632 1.920588 20.215 2.285862 -1.246979 -22.84554 6.325458 -6.958175 -29.63531 10.30366 96.83378 19.87463 -13.4838 -0 0 20.55422 -20.02936 11.05864 13.52317 0.3830432 -22.06634 -6.826065 -89.51528 14.97437 30.68571 0 0 -21.39971 2.795164 8.784139 13.13558
-1234.446 104.0948 2449.004 -5.738843 -4.708783 -64.74194 -0.5823033 13.06765 2.220125 -0 46.2425 -0 -7.546919 7.768917 -0.2261 -4.93801 -12.9688 -10.04565 -0 19.84889 -0 -0.5030804 -8.827097 20.71435 0.9551948 -1.817506 7.218858 -0.272978 15.12719 -5.981463 1.920486 20.21616 2.286769 -1.246239 -22.84587 6.325807 -6.958082 -29.63186 10.30358 96.836 19.87382 -13.48851 -0 0 20.54731 -20.02841 11.05591 13.52098 0.3841353 -22.06849 -6.826498 -89.51245 14.97575 30.67855 0 0 -21.40439 2.796993 8.785183 13.13337
